<svg xmlns="http://www.w3.org/2000/svg" xmlns:xlink="http://www.w3.org/1999/xlink" width="500" zoomAndPan="magnify" viewBox="0 0 375 374.999991" height="500" preserveAspectRatio="xMidYMid meet" version="1.0"><defs><g/><clipPath id="id1"><path d="M 122.660156 86.140625 L 228.410156 86.140625 L 228.410156 157.390625 L 122.660156 157.390625 Z M 122.660156 86.140625 " clip-rule="nonzero"/></clipPath><clipPath id="id2"><path d="M 148 86.140625 L 249.992188 86.140625 L 249.992188 150.640625 L 148 150.640625 Z M 148 86.140625 " clip-rule="nonzero"/></clipPath><clipPath id="id3"><path d="M 126.019531 139.757812 L 249.769531 139.757812 L 249.769531 151.757812 L 126.019531 151.757812 Z M 126.019531 139.757812 " clip-rule="nonzero"/></clipPath><clipPath id="id4"><path d="M 193.8125 118.164062 L 208.0625 118.164062 L 208.0625 132.414062 L 193.8125 132.414062 Z M 193.8125 118.164062 " clip-rule="nonzero"/></clipPath></defs><g fill="#000000" fill-opacity="1"><g transform="translate(111.624347, 188.531604)"><g><path d="M 23.308594 -3.191406 C 23.308594 -11.238281 33.296875 -31.632812 36.488281 -39.125 L 91.425781 -39.125 C 94.757812 -31.632812 104.746094 -11.238281 104.746094 -3.191406 C 104.746094 -2.082031 104.605469 -1.109375 104.328125 0 L 117.648438 0 C 112.238281 -4.578125 103.496094 -25.25 100.722656 -31.769531 L 63.957031 -114.457031 L 26.222656 -29.273438 C 23.585938 -23.167969 15.539062 -4.300781 10.40625 0 L 23.585938 0 C 23.445312 -1.109375 23.308594 -2.082031 23.308594 -3.191406 Z M 63.957031 -102.246094 L 89.207031 -44.257812 L 38.707031 -44.257812 Z M 63.957031 -102.246094 "/></g></g></g><g clip-path="url(#id1)"><path fill="#e4e4e4" d="M 122.6875 208.410156 L 175.535156 85.410156 L 228.378906 208.410156 Z M 122.6875 208.410156 " fill-opacity="1" fill-rule="nonzero"/></g><g fill="#000000" fill-opacity="1"><g transform="translate(137.041899, 188.531604)"><g><path d="M 23.308594 -3.191406 C 23.308594 -11.238281 33.296875 -31.632812 36.488281 -39.125 L 91.425781 -39.125 C 94.757812 -31.632812 104.746094 -11.238281 104.746094 -3.191406 C 104.746094 -2.082031 104.605469 -1.109375 104.328125 0 L 117.648438 0 C 112.238281 -4.578125 103.496094 -25.25 100.722656 -31.769531 L 63.957031 -114.457031 L 26.222656 -29.273438 C 23.585938 -23.167969 15.539062 -4.300781 10.40625 0 L 23.585938 0 C 23.445312 -1.109375 23.308594 -2.082031 23.308594 -3.191406 Z M 63.957031 -102.246094 L 89.207031 -44.257812 L 38.707031 -44.257812 Z M 63.957031 -102.246094 "/></g></g></g><g clip-path="url(#id2)"><path fill="#e4e4e4" d="M 148.023438 208.410156 L 200.867188 85.410156 L 253.710938 208.410156 Z M 148.023438 208.410156 " fill-opacity="1" fill-rule="nonzero"/></g><g clip-path="url(#id3)"><path fill="#000000" d="M 249.117188 142.738281 C 230.65625 148.691406 215.527344 151.667969 203.730469 151.667969 C 197.503906 151.667969 190.296875 150.796875 182.113281 149.050781 C 180.894531 148.828125 174.34375 147.234375 162.457031 144.28125 C 155.492188 142.535156 150.375 141.660156 147.109375 141.660156 C 140.535156 141.660156 134.007812 144.347656 127.519531 149.722656 C 127.34375 149.855469 127.171875 149.925781 126.996094 149.925781 C 126.34375 149.925781 126.019531 149.613281 126.019531 148.984375 C 126.019531 148.761719 126.125 148.558594 126.34375 148.378906 C 132.917969 142.691406 140.320312 139.847656 148.546875 139.847656 C 154.164062 139.847656 160.171875 140.453125 166.570312 141.660156 C 172.230469 142.78125 177.867188 143.921875 183.484375 145.085938 C 190.625 146.296875 197.808594 146.902344 205.035156 146.902344 C 221.753906 146.902344 236.273438 144.929688 248.59375 140.992188 C 249.375 140.765625 249.765625 141.082031 249.765625 141.929688 C 249.769531 142.332031 249.550781 142.601562 249.117188 142.738281 Z M 249.117188 142.738281 " fill-opacity="1" fill-rule="nonzero"/></g><path fill="#000000" d="M 193.8125 118.164062 L 208.0625 118.164062 L 208.0625 132.414062 L 193.8125 132.414062 L 193.8125 118.164062 " fill-opacity="1" fill-rule="nonzero"/><g clip-path="url(#id4)"><path fill="#e4e4e4" d="M 194.289062 125.765625 L 200.464844 125.765625 L 200.464844 131.941406 C 200.464844 132.203125 200.675781 132.414062 200.9375 132.414062 C 201.203125 132.414062 201.414062 132.203125 201.414062 131.941406 L 201.414062 125.765625 L 207.589844 125.765625 C 207.851562 125.765625 208.0625 125.550781 208.0625 125.289062 C 208.0625 125.027344 207.851562 124.816406 207.589844 124.816406 L 201.414062 124.816406 L 201.414062 118.640625 C 201.414062 118.378906 201.203125 118.164062 200.9375 118.164062 C 200.675781 118.164062 200.464844 118.378906 200.464844 118.640625 L 200.464844 124.816406 L 194.289062 124.816406 C 194.027344 124.816406 193.8125 125.027344 193.8125 125.289062 C 193.8125 125.550781 194.027344 125.765625 194.289062 125.765625 Z M 194.289062 125.765625 " fill-opacity="1" fill-rule="nonzero"/></g><path fill="#e4e4e4" d="M 49.386719 177.347656 L 325.34375 177.347656 L 325.34375 205.097656 L 49.386719 205.097656 L 49.386719 177.347656 " fill-opacity="1" fill-rule="nonzero"/><g fill="#000000" fill-opacity="1"><g transform="translate(44.550996, 228.938172)"><g><path d="M 3.140625 -19.359375 C 4.285156 -19.835938 5.382812 -20.078125 6.4375 -20.078125 C 7.320312 -20.078125 8.226562 -19.75 9.15625 -19.09375 C 9.664062 -18.738281 10.238281 -18.050781 10.875 -17.03125 C 11.289062 -16.332031 11.828125 -15.0625 12.484375 -13.21875 L 15.703125 -4.09375 C 16.441406 -2.050781 17.191406 -0.429688 17.953125 0.765625 C 18.710938 1.972656 19.410156 2.878906 20.046875 3.484375 C 20.679688 4.097656 21.34375 4.523438 22.03125 4.765625 C 22.71875 5.015625 23.285156 5.140625 23.734375 5.140625 C 24.179688 5.140625 24.578125 5.101562 24.921875 5.03125 L 24.953125 5.296875 C 24.109375 5.578125 23.28125 5.71875 22.46875 5.71875 C 21.664062 5.71875 20.859375 5.507812 20.046875 5.09375 C 19.242188 4.6875 18.488281 4.113281 17.78125 3.375 C 16.269531 1.84375 14.988281 -0.484375 13.9375 -3.609375 L 12.90625 -6.625 L 5.671875 -6.625 L 3.859375 -1.921875 C 3.765625 -1.710938 3.71875 -1.5 3.71875 -1.28125 C 3.71875 -1.070312 3.8125 -0.847656 4 -0.609375 C 4.1875 -0.378906 4.472656 -0.265625 4.859375 -0.265625 L 5.0625 -0.265625 L 5.0625 0 L -0.234375 0 L -0.234375 -0.265625 L 0 -0.265625 C 0.425781 -0.265625 0.835938 -0.390625 1.234375 -0.640625 C 1.640625 -0.898438 1.976562 -1.285156 2.25 -1.796875 L 8.78125 -17.453125 C 7.832031 -18.804688 6.65625 -19.484375 5.25 -19.484375 C 4.613281 -19.484375 3.9375 -19.351562 3.21875 -19.09375 Z M 5.96875 -7.40625 L 12.640625 -7.40625 L 10.5625 -13.5625 C 10.15625 -14.738281 9.785156 -15.660156 9.453125 -16.328125 Z M 5.96875 -7.40625 "/></g></g></g><g fill="#000000" fill-opacity="1"><g transform="translate(63.320903, 228.938172)"><g><path d="M 1.921875 -0.265625 C 2.378906 -0.265625 2.769531 -0.425781 3.09375 -0.75 C 3.425781 -1.070312 3.597656 -1.460938 3.609375 -1.921875 L 3.609375 -16.53125 C 3.597656 -16.988281 3.425781 -17.378906 3.09375 -17.703125 C 2.769531 -18.035156 2.378906 -18.203125 1.921875 -18.203125 L 1.578125 -18.203125 L 1.578125 -18.46875 L 7.359375 -18.46875 L 7.359375 -18.203125 L 7.015625 -18.203125 C 6.378906 -18.203125 5.894531 -17.925781 5.5625 -17.375 C 5.40625 -17.113281 5.328125 -16.832031 5.328125 -16.53125 L 5.328125 -0.8125 L 9.09375 -0.8125 C 10.394531 -0.8125 11.390625 -1.101562 12.078125 -1.6875 C 12.765625 -2.269531 13.335938 -3.128906 13.796875 -4.265625 L 14.0625 -4.265625 L 12.53125 0 L 1.578125 0 L 1.578125 -0.265625 Z M 1.921875 -0.265625 "/></g></g></g><g fill="#000000" fill-opacity="1"><g transform="translate(78.136475, 228.938172)"><g><path d="M 23.734375 -0.265625 L 24.15625 -0.265625 L 24.15625 0 L 18.4375 0 L 18.4375 -0.234375 L 18.828125 -0.234375 C 19.128906 -0.234375 19.382812 -0.347656 19.59375 -0.578125 C 19.800781 -0.804688 19.890625 -1.070312 19.859375 -1.375 L 18.671875 -14.640625 L 13.140625 -2.328125 C 12.640625 -1.253906 12.335938 -0.351562 12.234375 0.375 L 11.96875 0.375 L 5.21875 -14.265625 L 4.09375 -1.375 C 4.050781 -1.09375 4.132812 -0.832031 4.34375 -0.59375 C 4.5625 -0.351562 4.816406 -0.234375 5.109375 -0.234375 L 5.515625 -0.234375 L 5.515625 0 L 0.390625 0 L 0.390625 -0.265625 L 0.8125 -0.265625 C 1.3125 -0.265625 1.738281 -0.410156 2.09375 -0.703125 C 2.457031 -1.003906 2.675781 -1.410156 2.75 -1.921875 L 4.71875 -18.828125 L 4.984375 -18.828125 L 12.34375 -2.921875 L 19.546875 -18.828125 L 19.78125 -18.828125 L 21.8125 -1.921875 C 21.882812 -1.410156 22.101562 -1.003906 22.46875 -0.703125 C 22.84375 -0.410156 23.265625 -0.265625 23.734375 -0.265625 Z M 23.734375 -0.265625 "/></g></g></g><g fill="#000000" fill-opacity="1"><g transform="translate(102.679717, 228.938172)"><g><path d="M 19.390625 -18.203125 L 18.96875 -18.203125 C 18.59375 -18.203125 18.269531 -18.082031 18 -17.84375 C 17.726562 -17.601562 17.582031 -17.304688 17.5625 -16.953125 L 17.5625 -6.515625 C 17.5625 -4.453125 16.910156 -2.785156 15.609375 -1.515625 C 14.304688 -0.253906 12.570312 0.375 10.40625 0.375 C 8.25 0.375 6.5 -0.253906 5.15625 -1.515625 C 3.8125 -2.773438 3.140625 -4.429688 3.140625 -6.484375 L 3.140625 -16.875 C 3.140625 -17.40625 2.910156 -17.796875 2.453125 -18.046875 C 2.242188 -18.148438 2.003906 -18.203125 1.734375 -18.203125 L 1.3125 -18.203125 L 1.3125 -18.46875 L 6.671875 -18.46875 L 6.671875 -18.203125 L 6.25 -18.203125 C 5.863281 -18.203125 5.535156 -18.082031 5.265625 -17.84375 C 5.003906 -17.601562 4.867188 -17.300781 4.859375 -16.9375 L 4.859375 -6.859375 C 4.859375 -4.941406 5.367188 -3.394531 6.390625 -2.21875 C 7.421875 -1.039062 8.796875 -0.453125 10.515625 -0.453125 C 12.242188 -0.453125 13.644531 -1.007812 14.71875 -2.125 C 15.789062 -3.238281 16.328125 -4.703125 16.328125 -6.515625 L 16.328125 -16.9375 C 16.304688 -17.300781 16.164062 -17.601562 15.90625 -17.84375 C 15.644531 -18.082031 15.316406 -18.203125 14.921875 -18.203125 L 14.5 -18.203125 L 14.5 -18.46875 L 19.390625 -18.46875 Z M 19.390625 -18.203125 "/></g></g></g><g fill="#000000" fill-opacity="1"><g transform="translate(123.374072, 228.938172)"><g><path d="M 7.015625 -18.203125 C 6.378906 -18.203125 5.894531 -17.925781 5.5625 -17.375 C 5.425781 -17.132812 5.347656 -16.851562 5.328125 -16.53125 L 5.328125 0 C 5.328125 1.476562 4.863281 2.726562 3.9375 3.75 C 3.019531 4.769531 1.882812 5.28125 0.53125 5.28125 L 0.53125 5.03125 C 1.382812 4.738281 2.109375 4.09375 2.703125 3.09375 C 3.304688 2.101562 3.609375 1.046875 3.609375 -0.078125 L 3.609375 -16.53125 C 3.597656 -16.988281 3.425781 -17.378906 3.09375 -17.703125 C 2.769531 -18.035156 2.378906 -18.203125 1.921875 -18.203125 L 1.578125 -18.203125 L 1.578125 -18.46875 L 7.359375 -18.46875 L 7.359375 -18.203125 Z M 7.015625 -18.203125 "/></g></g></g><g fill="#000000" fill-opacity="1"><g transform="translate(131.915435, 228.938172)"><g><path d="M 15.53125 -16.109375 C 15.53125 -16.535156 15.378906 -16.898438 15.078125 -17.203125 C 14.785156 -17.515625 14.4375 -17.679688 14.03125 -17.703125 L 9.015625 -17.703125 L 9.015625 -1.90625 C 9.035156 -1.445312 9.207031 -1.054688 9.53125 -0.734375 C 9.851562 -0.421875 10.242188 -0.265625 10.703125 -0.265625 L 11.046875 -0.265625 L 11.046875 0 L 5.28125 0 L 5.28125 -0.265625 L 5.625 -0.265625 C 6.070312 -0.265625 6.457031 -0.421875 6.78125 -0.734375 C 7.113281 -1.054688 7.289062 -1.4375 7.3125 -1.875 L 7.3125 -17.703125 L 2.296875 -17.703125 C 1.867188 -17.679688 1.507812 -17.515625 1.21875 -17.203125 C 0.9375 -16.898438 0.796875 -16.535156 0.796875 -16.109375 L 0.796875 -15.671875 L 0.53125 -15.640625 L 0.53125 -18.96875 C 0.789062 -18.863281 1.242188 -18.753906 1.890625 -18.640625 C 2.546875 -18.535156 3.144531 -18.484375 3.6875 -18.484375 L 12.609375 -18.484375 C 13.472656 -18.484375 14.1875 -18.550781 14.75 -18.6875 C 15.320312 -18.820312 15.671875 -18.914062 15.796875 -18.96875 L 15.796875 -15.640625 L 15.53125 -15.671875 Z M 15.53125 -16.109375 "/></g></g></g><g fill="#000000" fill-opacity="1"><g transform="translate(148.207295, 228.938172)"><g><path d="M 18.890625 -0.265625 L 19.09375 -0.265625 L 19.09375 0 L 13.171875 0 L 13.171875 -0.265625 L 13.40625 -0.265625 C 13.769531 -0.265625 14.046875 -0.378906 14.234375 -0.609375 C 14.421875 -0.847656 14.515625 -1.070312 14.515625 -1.28125 C 14.515625 -1.5 14.476562 -1.710938 14.40625 -1.921875 L 12.71875 -6.40625 L 5.59375 -6.40625 L 3.828125 -1.90625 C 3.753906 -1.6875 3.71875 -1.472656 3.71875 -1.265625 C 3.71875 -1.066406 3.8125 -0.847656 4 -0.609375 C 4.1875 -0.378906 4.460938 -0.265625 4.828125 -0.265625 L 5.0625 -0.265625 L 5.0625 0 L -0.234375 0 L -0.234375 -0.265625 L 0 -0.265625 C 0.445312 -0.265625 0.878906 -0.40625 1.296875 -0.6875 C 1.722656 -0.96875 2.066406 -1.378906 2.328125 -1.921875 L 8.28125 -16.109375 C 8.9375 -17.535156 9.265625 -18.441406 9.265625 -18.828125 L 9.5 -18.828125 L 16.5625 -1.921875 C 16.8125 -1.378906 17.144531 -0.96875 17.5625 -0.6875 C 17.988281 -0.40625 18.429688 -0.265625 18.890625 -0.265625 Z M 5.90625 -7.203125 L 12.40625 -7.203125 L 9.234375 -15.671875 Z M 5.90625 -7.203125 "/></g></g></g><g fill="#000000" fill-opacity="1"><g transform="translate(166.977202, 228.938172)"><g><path d="M 8.015625 0 L 1.578125 0 L 1.609375 -0.265625 L 1.921875 -0.265625 C 2.378906 -0.265625 2.769531 -0.421875 3.09375 -0.734375 C 3.425781 -1.054688 3.597656 -1.445312 3.609375 -1.90625 L 3.609375 -16.5625 C 3.597656 -17.019531 3.425781 -17.40625 3.09375 -17.71875 C 2.769531 -18.039062 2.378906 -18.203125 1.921875 -18.203125 L 1.609375 -18.203125 L 1.578125 -18.46875 L 6.828125 -18.46875 C 8.640625 -18.46875 10.046875 -18.066406 11.046875 -17.265625 C 12.046875 -16.460938 12.546875 -15.394531 12.546875 -14.0625 C 12.546875 -13 12.265625 -12.117188 11.703125 -11.421875 C 11.140625 -10.734375 10.457031 -10.273438 9.65625 -10.046875 C 11.039062 -9.835938 12.132812 -9.265625 12.9375 -8.328125 C 13.75 -7.398438 14.15625 -6.226562 14.15625 -4.8125 C 14.15625 -3.394531 13.613281 -2.238281 12.53125 -1.34375 C 11.457031 -0.445312 9.953125 0 8.015625 0 Z M 5.328125 -0.96875 L 7.90625 -0.96875 C 7.925781 -0.96875 7.945312 -0.96875 7.96875 -0.96875 C 9.300781 -0.96875 10.335938 -1.328125 11.078125 -2.046875 C 11.816406 -2.773438 12.1875 -3.804688 12.1875 -5.140625 C 12.1875 -5.898438 12.054688 -6.5625 11.796875 -7.125 C 11.546875 -7.695312 11.226562 -8.15625 10.84375 -8.5 C 9.820312 -9.34375 8.289062 -9.765625 6.25 -9.765625 C 6.25 -9.765625 6.238281 -9.765625 6.21875 -9.765625 L 6.21875 -10 C 8.539062 -10 9.941406 -10.859375 10.421875 -12.578125 C 10.523438 -12.960938 10.578125 -13.394531 10.578125 -13.875 C 10.578125 -15.070312 10.242188 -15.992188 9.578125 -16.640625 C 8.921875 -17.296875 7.96875 -17.625 6.71875 -17.625 L 5.328125 -17.625 Z M 5.328125 -0.96875 "/></g></g></g><g fill="#000000" fill-opacity="1"><g transform="translate(182.425467, 228.938172)"><g><path d="M 18.890625 -0.265625 L 19.09375 -0.265625 L 19.09375 0 L 13.171875 0 L 13.171875 -0.265625 L 13.40625 -0.265625 C 13.769531 -0.265625 14.046875 -0.378906 14.234375 -0.609375 C 14.421875 -0.847656 14.515625 -1.070312 14.515625 -1.28125 C 14.515625 -1.5 14.476562 -1.710938 14.40625 -1.921875 L 12.71875 -6.40625 L 5.59375 -6.40625 L 3.828125 -1.90625 C 3.753906 -1.6875 3.71875 -1.472656 3.71875 -1.265625 C 3.71875 -1.066406 3.8125 -0.847656 4 -0.609375 C 4.1875 -0.378906 4.460938 -0.265625 4.828125 -0.265625 L 5.0625 -0.265625 L 5.0625 0 L -0.234375 0 L -0.234375 -0.265625 L 0 -0.265625 C 0.445312 -0.265625 0.878906 -0.40625 1.296875 -0.6875 C 1.722656 -0.96875 2.066406 -1.378906 2.328125 -1.921875 L 8.28125 -16.109375 C 8.9375 -17.535156 9.265625 -18.441406 9.265625 -18.828125 L 9.5 -18.828125 L 16.5625 -1.921875 C 16.8125 -1.378906 17.144531 -0.96875 17.5625 -0.6875 C 17.988281 -0.40625 18.429688 -0.265625 18.890625 -0.265625 Z M 5.90625 -7.203125 L 12.40625 -7.203125 L 9.234375 -15.671875 Z M 5.90625 -7.203125 "/></g></g></g><g fill="#000000" fill-opacity="1"><g transform="translate(201.195382, 228.938172)"><g/></g></g><g fill="#000000" fill-opacity="1"><g transform="translate(207.785943, 228.938172)"><g><path d="M 3.140625 -19.359375 C 4.285156 -19.835938 5.382812 -20.078125 6.4375 -20.078125 C 7.320312 -20.078125 8.226562 -19.75 9.15625 -19.09375 C 9.664062 -18.738281 10.238281 -18.050781 10.875 -17.03125 C 11.289062 -16.332031 11.828125 -15.0625 12.484375 -13.21875 L 15.703125 -4.09375 C 16.441406 -2.050781 17.191406 -0.429688 17.953125 0.765625 C 18.710938 1.972656 19.410156 2.878906 20.046875 3.484375 C 20.679688 4.097656 21.34375 4.523438 22.03125 4.765625 C 22.71875 5.015625 23.285156 5.140625 23.734375 5.140625 C 24.179688 5.140625 24.578125 5.101562 24.921875 5.03125 L 24.953125 5.296875 C 24.109375 5.578125 23.28125 5.71875 22.46875 5.71875 C 21.664062 5.71875 20.859375 5.507812 20.046875 5.09375 C 19.242188 4.6875 18.488281 4.113281 17.78125 3.375 C 16.269531 1.84375 14.988281 -0.484375 13.9375 -3.609375 L 12.90625 -6.625 L 5.671875 -6.625 L 3.859375 -1.921875 C 3.765625 -1.710938 3.71875 -1.5 3.71875 -1.28125 C 3.71875 -1.070312 3.8125 -0.847656 4 -0.609375 C 4.1875 -0.378906 4.472656 -0.265625 4.859375 -0.265625 L 5.0625 -0.265625 L 5.0625 0 L -0.234375 0 L -0.234375 -0.265625 L 0 -0.265625 C 0.425781 -0.265625 0.835938 -0.390625 1.234375 -0.640625 C 1.640625 -0.898438 1.976562 -1.285156 2.25 -1.796875 L 8.78125 -17.453125 C 7.832031 -18.804688 6.65625 -19.484375 5.25 -19.484375 C 4.613281 -19.484375 3.9375 -19.351562 3.21875 -19.09375 Z M 5.96875 -7.40625 L 12.640625 -7.40625 L 10.5625 -13.5625 C 10.15625 -14.738281 9.785156 -15.660156 9.453125 -16.328125 Z M 5.96875 -7.40625 "/></g></g></g><g fill="#000000" fill-opacity="1"><g transform="translate(226.555858, 228.938172)"><g><path d="M 8.015625 0 L 1.578125 0 L 1.609375 -0.265625 L 1.921875 -0.265625 C 2.378906 -0.265625 2.769531 -0.421875 3.09375 -0.734375 C 3.425781 -1.054688 3.597656 -1.445312 3.609375 -1.90625 L 3.609375 -16.5625 C 3.597656 -17.019531 3.425781 -17.40625 3.09375 -17.71875 C 2.769531 -18.039062 2.378906 -18.203125 1.921875 -18.203125 L 1.609375 -18.203125 L 1.578125 -18.46875 L 6.828125 -18.46875 C 8.640625 -18.46875 10.046875 -18.066406 11.046875 -17.265625 C 12.046875 -16.460938 12.546875 -15.394531 12.546875 -14.0625 C 12.546875 -13 12.265625 -12.117188 11.703125 -11.421875 C 11.140625 -10.734375 10.457031 -10.273438 9.65625 -10.046875 C 11.039062 -9.835938 12.132812 -9.265625 12.9375 -8.328125 C 13.75 -7.398438 14.15625 -6.226562 14.15625 -4.8125 C 14.15625 -3.394531 13.613281 -2.238281 12.53125 -1.34375 C 11.457031 -0.445312 9.953125 0 8.015625 0 Z M 5.328125 -0.96875 L 7.90625 -0.96875 C 7.925781 -0.96875 7.945312 -0.96875 7.96875 -0.96875 C 9.300781 -0.96875 10.335938 -1.328125 11.078125 -2.046875 C 11.816406 -2.773438 12.1875 -3.804688 12.1875 -5.140625 C 12.1875 -5.898438 12.054688 -6.5625 11.796875 -7.125 C 11.546875 -7.695312 11.226562 -8.15625 10.84375 -8.5 C 9.820312 -9.34375 8.289062 -9.765625 6.25 -9.765625 C 6.25 -9.765625 6.238281 -9.765625 6.21875 -9.765625 L 6.21875 -10 C 8.539062 -10 9.941406 -10.859375 10.421875 -12.578125 C 10.523438 -12.960938 10.578125 -13.394531 10.578125 -13.875 C 10.578125 -15.070312 10.242188 -15.992188 9.578125 -16.640625 C 8.921875 -17.296875 7.96875 -17.625 6.71875 -17.625 L 5.328125 -17.625 Z M 5.328125 -0.96875 "/></g></g></g><g fill="#000000" fill-opacity="1"><g transform="translate(242.004115, 228.938172)"><g><path d="M 10.53125 -18.46875 C 13.34375 -18.46875 15.625 -17.617188 17.375 -15.921875 C 19.125 -14.222656 20 -11.992188 20 -9.234375 C 20 -6.472656 19.125 -4.242188 17.375 -2.546875 C 15.625 -0.847656 13.34375 0 10.53125 0 L 1.578125 0 L 1.578125 -0.265625 L 1.921875 -0.265625 C 2.378906 -0.265625 2.769531 -0.425781 3.09375 -0.75 C 3.425781 -1.070312 3.597656 -1.460938 3.609375 -1.921875 L 3.609375 -16.703125 C 3.609375 -17.117188 3.4375 -17.472656 3.09375 -17.765625 C 2.75 -18.054688 2.359375 -18.203125 1.921875 -18.203125 L 1.609375 -18.203125 L 1.578125 -18.46875 Z M 5.328125 -17.671875 L 5.328125 -0.796875 L 10.53125 -0.796875 C 12 -0.796875 13.300781 -1.144531 14.4375 -1.84375 C 15.570312 -2.550781 16.453125 -3.539062 17.078125 -4.8125 C 17.703125 -6.082031 18.015625 -7.554688 18.015625 -9.234375 C 18.015625 -11.765625 17.320312 -13.800781 15.9375 -15.34375 C 14.5625 -16.894531 12.757812 -17.671875 10.53125 -17.671875 Z M 5.328125 -17.671875 "/></g></g></g><g fill="#000000" fill-opacity="1"><g transform="translate(263.278446, 228.938172)"><g><path d="M 18.890625 -0.265625 L 19.09375 -0.265625 L 19.09375 0 L 13.171875 0 L 13.171875 -0.265625 L 13.40625 -0.265625 C 13.769531 -0.265625 14.046875 -0.378906 14.234375 -0.609375 C 14.421875 -0.847656 14.515625 -1.070312 14.515625 -1.28125 C 14.515625 -1.5 14.476562 -1.710938 14.40625 -1.921875 L 12.71875 -6.40625 L 5.59375 -6.40625 L 3.828125 -1.90625 C 3.753906 -1.6875 3.71875 -1.472656 3.71875 -1.265625 C 3.71875 -1.066406 3.8125 -0.847656 4 -0.609375 C 4.1875 -0.378906 4.460938 -0.265625 4.828125 -0.265625 L 5.0625 -0.265625 L 5.0625 0 L -0.234375 0 L -0.234375 -0.265625 L 0 -0.265625 C 0.445312 -0.265625 0.878906 -0.40625 1.296875 -0.6875 C 1.722656 -0.96875 2.066406 -1.378906 2.328125 -1.921875 L 8.28125 -16.109375 C 8.9375 -17.535156 9.265625 -18.441406 9.265625 -18.828125 L 9.5 -18.828125 L 16.5625 -1.921875 C 16.8125 -1.378906 17.144531 -0.96875 17.5625 -0.6875 C 17.988281 -0.40625 18.429688 -0.265625 18.890625 -0.265625 Z M 5.90625 -7.203125 L 12.40625 -7.203125 L 9.234375 -15.671875 Z M 5.90625 -7.203125 "/></g></g></g><g fill="#000000" fill-opacity="1"><g transform="translate(282.048346, 228.938172)"><g><path d="M 1.921875 -0.265625 C 2.378906 -0.265625 2.769531 -0.425781 3.09375 -0.75 C 3.425781 -1.070312 3.597656 -1.460938 3.609375 -1.921875 L 3.609375 -16.53125 C 3.597656 -16.988281 3.425781 -17.378906 3.09375 -17.703125 C 2.769531 -18.035156 2.378906 -18.203125 1.921875 -18.203125 L 1.578125 -18.203125 L 1.578125 -18.46875 L 7.359375 -18.46875 L 7.359375 -18.203125 L 7.015625 -18.203125 C 6.378906 -18.203125 5.894531 -17.925781 5.5625 -17.375 C 5.40625 -17.113281 5.328125 -16.832031 5.328125 -16.53125 L 5.328125 -0.8125 L 9.09375 -0.8125 C 10.394531 -0.8125 11.390625 -1.101562 12.078125 -1.6875 C 12.765625 -2.269531 13.335938 -3.128906 13.796875 -4.265625 L 14.0625 -4.265625 L 12.53125 0 L 1.578125 0 L 1.578125 -0.265625 Z M 1.921875 -0.265625 "/></g></g></g><g fill="#000000" fill-opacity="1"><g transform="translate(296.863918, 228.938172)"><g><path d="M 1.921875 -0.265625 C 2.378906 -0.265625 2.769531 -0.425781 3.09375 -0.75 C 3.425781 -1.070312 3.597656 -1.460938 3.609375 -1.921875 L 3.609375 -16.53125 C 3.597656 -16.988281 3.425781 -17.378906 3.09375 -17.703125 C 2.769531 -18.035156 2.378906 -18.203125 1.921875 -18.203125 L 1.578125 -18.203125 L 1.578125 -18.46875 L 7.359375 -18.46875 L 7.359375 -18.203125 L 7.015625 -18.203125 C 6.378906 -18.203125 5.894531 -17.925781 5.5625 -17.375 C 5.40625 -17.113281 5.328125 -16.832031 5.328125 -16.53125 L 5.328125 -0.8125 L 9.09375 -0.8125 C 10.394531 -0.8125 11.390625 -1.101562 12.078125 -1.6875 C 12.765625 -2.269531 13.335938 -3.128906 13.796875 -4.265625 L 14.0625 -4.265625 L 12.53125 0 L 1.578125 0 L 1.578125 -0.265625 Z M 1.921875 -0.265625 "/></g></g></g><g fill="#000000" fill-opacity="1"><g transform="translate(311.67949, 228.938172)"><g><path d="M 18.890625 -0.265625 L 19.09375 -0.265625 L 19.09375 0 L 13.171875 0 L 13.171875 -0.265625 L 13.40625 -0.265625 C 13.769531 -0.265625 14.046875 -0.378906 14.234375 -0.609375 C 14.421875 -0.847656 14.515625 -1.070312 14.515625 -1.28125 C 14.515625 -1.5 14.476562 -1.710938 14.40625 -1.921875 L 12.71875 -6.40625 L 5.59375 -6.40625 L 3.828125 -1.90625 C 3.753906 -1.6875 3.71875 -1.472656 3.71875 -1.265625 C 3.71875 -1.066406 3.8125 -0.847656 4 -0.609375 C 4.1875 -0.378906 4.460938 -0.265625 4.828125 -0.265625 L 5.0625 -0.265625 L 5.0625 0 L -0.234375 0 L -0.234375 -0.265625 L 0 -0.265625 C 0.445312 -0.265625 0.878906 -0.40625 1.296875 -0.6875 C 1.722656 -0.96875 2.066406 -1.378906 2.328125 -1.921875 L 8.28125 -16.109375 C 8.9375 -17.535156 9.265625 -18.441406 9.265625 -18.828125 L 9.5 -18.828125 L 16.5625 -1.921875 C 16.8125 -1.378906 17.144531 -0.96875 17.5625 -0.6875 C 17.988281 -0.40625 18.429688 -0.265625 18.890625 -0.265625 Z M 5.90625 -7.203125 L 12.40625 -7.203125 L 9.234375 -15.671875 Z M 5.90625 -7.203125 "/></g></g></g><g fill="#000000" fill-opacity="1"><g transform="translate(93.387146, 262.144589)"><g><path d="M 7.0625 -10.296875 L 7.0625 -9.046875 L 6.90625 -9.046875 L 6.90625 -9.265625 C 6.90625 -9.460938 6.832031 -9.632812 6.6875 -9.78125 C 6.550781 -9.925781 6.378906 -10 6.171875 -10 L 3.015625 -10 L 3.015625 -5.390625 L 5.546875 -5.390625 C 5.742188 -5.390625 5.910156 -5.457031 6.046875 -5.59375 C 6.191406 -5.738281 6.265625 -5.910156 6.265625 -6.109375 L 6.265625 -6.34375 L 6.421875 -6.34375 L 6.421875 -3.984375 L 6.265625 -3.984375 L 6.265625 -4.203125 C 6.265625 -4.398438 6.195312 -4.566406 6.0625 -4.703125 C 5.925781 -4.847656 5.757812 -4.925781 5.5625 -4.9375 L 3.015625 -4.9375 L 3.015625 -1.09375 C 3.015625 -0.832031 3.109375 -0.609375 3.296875 -0.421875 C 3.492188 -0.242188 3.722656 -0.15625 3.984375 -0.15625 L 4.171875 -0.15625 L 4.171875 0 L 0.890625 0 L 0.890625 -0.15625 L 1.09375 -0.15625 C 1.351562 -0.15625 1.570312 -0.242188 1.75 -0.421875 C 1.9375 -0.609375 2.035156 -0.832031 2.046875 -1.09375 L 2.046875 -9.46875 C 2.046875 -9.707031 1.945312 -9.90625 1.75 -10.0625 C 1.5625 -10.226562 1.34375 -10.3125 1.09375 -10.3125 L 0.90625 -10.3125 L 0.890625 -10.46875 L 5.28125 -10.46875 C 5.582031 -10.46875 5.914062 -10.492188 6.28125 -10.546875 C 6.644531 -10.609375 6.90625 -10.671875 7.0625 -10.734375 Z M 7.0625 -10.296875 "/></g></g></g><g fill="#000000" fill-opacity="1"><g transform="translate(101.471603, 262.144589)"><g><path d="M 10.984375 -10.3125 L 10.75 -10.3125 C 10.539062 -10.3125 10.359375 -10.242188 10.203125 -10.109375 C 10.046875 -9.972656 9.960938 -9.804688 9.953125 -9.609375 L 9.953125 -3.6875 C 9.953125 -2.519531 9.582031 -1.578125 8.84375 -0.859375 C 8.113281 -0.148438 7.132812 0.203125 5.90625 0.203125 C 4.675781 0.203125 3.679688 -0.148438 2.921875 -0.859375 C 2.160156 -1.566406 1.78125 -2.503906 1.78125 -3.671875 L 1.78125 -9.5625 C 1.78125 -9.863281 1.648438 -10.085938 1.390625 -10.234375 C 1.273438 -10.285156 1.140625 -10.3125 0.984375 -10.3125 L 0.75 -10.3125 L 0.75 -10.46875 L 3.78125 -10.46875 L 3.78125 -10.3125 L 3.546875 -10.3125 C 3.328125 -10.3125 3.140625 -10.242188 2.984375 -10.109375 C 2.835938 -9.972656 2.757812 -9.800781 2.75 -9.59375 L 2.75 -3.890625 C 2.75 -2.804688 3.039062 -1.925781 3.625 -1.25 C 4.207031 -0.582031 4.988281 -0.25 5.96875 -0.25 C 6.945312 -0.25 7.738281 -0.566406 8.34375 -1.203125 C 8.945312 -1.835938 9.25 -2.664062 9.25 -3.6875 L 9.25 -9.59375 C 9.238281 -9.800781 9.160156 -9.972656 9.015625 -10.109375 C 8.867188 -10.242188 8.6875 -10.3125 8.46875 -10.3125 L 8.21875 -10.3125 L 8.21875 -10.46875 L 10.984375 -10.46875 Z M 10.984375 -10.3125 "/></g></g></g><g fill="#000000" fill-opacity="1"><g transform="translate(113.202289, 262.144589)"><g><path d="M 1.09375 -0.15625 C 1.351562 -0.15625 1.570312 -0.242188 1.75 -0.421875 C 1.9375 -0.609375 2.035156 -0.832031 2.046875 -1.09375 L 2.046875 -9.375 C 2.035156 -9.632812 1.9375 -9.851562 1.75 -10.03125 C 1.570312 -10.21875 1.351562 -10.3125 1.09375 -10.3125 L 0.890625 -10.3125 L 0.890625 -10.46875 L 4.171875 -10.46875 L 4.171875 -10.3125 L 3.984375 -10.3125 C 3.617188 -10.3125 3.34375 -10.160156 3.15625 -9.859375 C 3.0625 -9.703125 3.015625 -9.539062 3.015625 -9.375 L 3.015625 -0.46875 L 5.15625 -0.46875 C 5.894531 -0.46875 6.457031 -0.628906 6.84375 -0.953125 C 7.238281 -1.285156 7.566406 -1.773438 7.828125 -2.421875 L 7.96875 -2.421875 L 7.109375 0 L 0.890625 0 L 0.890625 -0.15625 Z M 1.09375 -0.15625 "/></g></g></g><g fill="#000000" fill-opacity="1"><g transform="translate(121.600566, 262.144589)"><g><path d="M 1.09375 -0.15625 C 1.351562 -0.15625 1.570312 -0.242188 1.75 -0.421875 C 1.9375 -0.609375 2.035156 -0.832031 2.046875 -1.09375 L 2.046875 -9.375 C 2.035156 -9.632812 1.9375 -9.851562 1.75 -10.03125 C 1.570312 -10.21875 1.351562 -10.3125 1.09375 -10.3125 L 0.890625 -10.3125 L 0.890625 -10.46875 L 4.171875 -10.46875 L 4.171875 -10.3125 L 3.984375 -10.3125 C 3.617188 -10.3125 3.34375 -10.160156 3.15625 -9.859375 C 3.0625 -9.703125 3.015625 -9.539062 3.015625 -9.375 L 3.015625 -0.46875 L 5.15625 -0.46875 C 5.894531 -0.46875 6.457031 -0.628906 6.84375 -0.953125 C 7.238281 -1.285156 7.566406 -1.773438 7.828125 -2.421875 L 7.96875 -2.421875 L 7.109375 0 L 0.890625 0 L 0.890625 -0.15625 Z M 1.09375 -0.15625 "/></g></g></g><g fill="#000000" fill-opacity="1"><g transform="translate(129.998842, 262.144589)"><g><path d="M 0.90625 -0.609375 C 0.882812 -0.753906 0.875 -1.023438 0.875 -1.421875 C 0.875 -1.816406 0.945312 -2.238281 1.09375 -2.6875 L 1.21875 -2.6875 C 1.21875 -2.582031 1.21875 -2.472656 1.21875 -2.359375 C 1.21875 -1.753906 1.398438 -1.25 1.765625 -0.84375 C 2.128906 -0.4375 2.617188 -0.234375 3.234375 -0.234375 C 3.859375 -0.234375 4.375 -0.421875 4.78125 -0.796875 C 5.1875 -1.179688 5.390625 -1.660156 5.390625 -2.234375 C 5.390625 -2.804688 5.191406 -3.273438 4.796875 -3.640625 L 1.921875 -6.296875 C 1.390625 -6.796875 1.125 -7.398438 1.125 -8.109375 C 1.125 -8.816406 1.359375 -9.421875 1.828125 -9.921875 C 2.304688 -10.421875 2.945312 -10.671875 3.75 -10.671875 C 4.132812 -10.671875 4.566406 -10.625 5.046875 -10.53125 L 5.625 -10.53125 L 5.625 -8.6875 L 5.484375 -8.6875 C 5.484375 -9.15625 5.320312 -9.53125 5 -9.8125 C 4.675781 -10.09375 4.257812 -10.234375 3.75 -10.234375 C 3.238281 -10.234375 2.8125 -10.0625 2.46875 -9.71875 C 2.125 -9.382812 1.953125 -8.960938 1.953125 -8.453125 C 1.953125 -7.941406 2.15625 -7.5 2.5625 -7.125 L 5.5 -4.40625 C 6 -3.945312 6.25 -3.316406 6.25 -2.515625 C 6.25 -1.722656 5.992188 -1.070312 5.484375 -0.5625 C 4.972656 -0.0507812 4.296875 0.203125 3.453125 0.203125 C 3.015625 0.203125 2.546875 0.132812 2.046875 0 C 1.554688 -0.125 1.175781 -0.328125 0.90625 -0.609375 Z M 0.90625 -0.609375 "/></g></g></g><g fill="#000000" fill-opacity="1"><g transform="translate(137.097035, 262.144589)"><g><path d="M 8.8125 -9.140625 C 8.8125 -9.378906 8.722656 -9.582031 8.546875 -9.75 C 8.378906 -9.925781 8.179688 -10.019531 7.953125 -10.03125 L 5.109375 -10.03125 L 5.109375 -1.078125 C 5.117188 -0.816406 5.21875 -0.597656 5.40625 -0.421875 C 5.59375 -0.242188 5.816406 -0.15625 6.078125 -0.15625 L 6.265625 -0.15625 L 6.265625 0 L 2.984375 0 L 2.984375 -0.15625 L 3.1875 -0.15625 C 3.445312 -0.15625 3.664062 -0.242188 3.84375 -0.421875 C 4.03125 -0.597656 4.128906 -0.8125 4.140625 -1.0625 L 4.140625 -10.03125 L 1.296875 -10.03125 C 1.054688 -10.019531 0.851562 -9.925781 0.6875 -9.75 C 0.53125 -9.582031 0.453125 -9.378906 0.453125 -9.140625 L 0.453125 -8.875 L 0.296875 -8.875 L 0.296875 -10.75 C 0.441406 -10.6875 0.695312 -10.625 1.0625 -10.5625 C 1.4375 -10.507812 1.78125 -10.484375 2.09375 -10.484375 L 7.140625 -10.484375 C 7.628906 -10.484375 8.035156 -10.519531 8.359375 -10.59375 C 8.691406 -10.664062 8.890625 -10.71875 8.953125 -10.75 L 8.953125 -8.875 L 8.8125 -8.875 Z M 8.8125 -9.140625 "/></g></g></g><g fill="#000000" fill-opacity="1"><g transform="translate(146.332146, 262.144589)"><g><path d="M 10.703125 -0.15625 L 10.828125 -0.15625 L 10.828125 0 L 7.46875 0 L 7.46875 -0.15625 L 7.59375 -0.15625 C 7.800781 -0.15625 7.957031 -0.21875 8.0625 -0.34375 C 8.164062 -0.476562 8.21875 -0.601562 8.21875 -0.71875 C 8.21875 -0.84375 8.203125 -0.96875 8.171875 -1.09375 L 7.203125 -3.640625 L 3.171875 -3.640625 L 2.171875 -1.078125 C 2.128906 -0.953125 2.109375 -0.832031 2.109375 -0.71875 C 2.109375 -0.601562 2.160156 -0.476562 2.265625 -0.34375 C 2.367188 -0.21875 2.523438 -0.15625 2.734375 -0.15625 L 2.875 -0.15625 L 2.875 0 L -0.140625 0 L -0.140625 -0.15625 L 0 -0.15625 C 0.25 -0.15625 0.492188 -0.234375 0.734375 -0.390625 C 0.972656 -0.546875 1.164062 -0.78125 1.3125 -1.09375 L 4.703125 -9.140625 C 5.066406 -9.941406 5.25 -10.453125 5.25 -10.671875 L 5.390625 -10.671875 L 9.390625 -1.09375 C 9.523438 -0.78125 9.710938 -0.546875 9.953125 -0.390625 C 10.191406 -0.234375 10.441406 -0.15625 10.703125 -0.15625 Z M 3.34375 -4.078125 L 7.03125 -4.078125 L 5.234375 -8.875 Z M 3.34375 -4.078125 "/></g></g></g><g fill="#000000" fill-opacity="1"><g transform="translate(156.971962, 262.144589)"><g><path d="M 6.234375 0.203125 C 4.660156 0.191406 3.375 -0.304688 2.375 -1.296875 C 1.382812 -2.296875 0.890625 -3.609375 0.890625 -5.234375 C 0.890625 -6.867188 1.382812 -8.179688 2.375 -9.171875 C 3.375 -10.171875 4.691406 -10.671875 6.328125 -10.671875 C 7.660156 -10.671875 8.84375 -10.332031 9.875 -9.65625 L 10.171875 -7.546875 L 10.03125 -7.546875 C 9.8125 -8.410156 9.367188 -9.070312 8.703125 -9.53125 C 8.035156 -10 7.242188 -10.234375 6.328125 -10.234375 C 5.015625 -10.234375 3.96875 -9.773438 3.1875 -8.859375 C 2.40625 -7.953125 2.015625 -6.75 2.015625 -5.25 C 2.015625 -3.757812 2.398438 -2.554688 3.171875 -1.640625 C 3.953125 -0.734375 4.972656 -0.265625 6.234375 -0.234375 C 7.347656 -0.234375 8.28125 -0.539062 9.03125 -1.15625 C 9.84375 -1.8125 10.332031 -2.878906 10.5 -4.359375 L 10.609375 -4.359375 L 10.4375 -2.015625 C 9.53125 -0.535156 8.128906 0.203125 6.234375 0.203125 Z M 6.234375 0.203125 "/></g></g></g><g fill="#000000" fill-opacity="1"><g transform="translate(168.329062, 262.144589)"><g><path d="M 3.984375 -0.15625 L 4.171875 -0.15625 L 4.171875 0 L 0.890625 0 L 0.890625 -0.15625 L 1.09375 -0.15625 C 1.351562 -0.15625 1.570312 -0.242188 1.75 -0.421875 C 1.9375 -0.609375 2.035156 -0.832031 2.046875 -1.09375 L 2.046875 -9.390625 C 2.035156 -9.648438 1.9375 -9.867188 1.75 -10.046875 C 1.570312 -10.222656 1.351562 -10.3125 1.09375 -10.3125 L 0.890625 -10.3125 L 0.890625 -10.46875 L 4.171875 -10.46875 L 4.171875 -10.3125 L 3.984375 -10.3125 C 3.722656 -10.3125 3.5 -10.222656 3.3125 -10.046875 C 3.125 -9.867188 3.023438 -9.648438 3.015625 -9.390625 L 3.015625 -1.09375 C 3.015625 -0.832031 3.109375 -0.609375 3.296875 -0.421875 C 3.492188 -0.242188 3.722656 -0.15625 3.984375 -0.15625 Z M 9.984375 0 L 9.34375 0 C 8.332031 0 7.585938 -0.285156 7.109375 -0.859375 L 3.5 -5.203125 L 7.03125 -9.625 C 7.101562 -9.726562 7.140625 -9.816406 7.140625 -9.890625 C 7.140625 -9.972656 7.128906 -10.046875 7.109375 -10.109375 C 7.023438 -10.253906 6.878906 -10.328125 6.671875 -10.328125 L 6.515625 -10.328125 L 6.515625 -10.46875 L 9.671875 -10.46875 L 9.671875 -10.328125 L 9.609375 -10.328125 C 8.953125 -10.328125 8.414062 -10.09375 8 -9.625 L 4.484375 -5.5625 L 8.5625 -0.765625 C 8.96875 -0.367188 9.441406 -0.164062 9.984375 -0.15625 Z M 9.984375 0 "/></g></g></g><g fill="#000000" fill-opacity="1"><g transform="translate(178.146973, 262.144589)"><g/></g></g><g fill="#000000" fill-opacity="1"><g transform="translate(181.882863, 262.144589)"><g><path d="M 14.84375 -10.3125 L 14.734375 -10.3125 C 14.359375 -10.3125 14.03125 -10.175781 13.75 -9.90625 C 13.59375 -9.769531 13.476562 -9.597656 13.40625 -9.390625 L 10.9375 -1.484375 C 10.726562 -0.847656 10.617188 -0.296875 10.609375 0.171875 L 10.46875 0.171875 L 7.421875 -8.375 L 5.140625 -1.484375 C 4.953125 -0.859375 4.847656 -0.304688 4.828125 0.171875 L 4.703125 0.171875 L 1.296875 -9.40625 C 1.179688 -9.707031 1 -9.929688 0.75 -10.078125 C 0.5 -10.234375 0.242188 -10.3125 -0.015625 -10.3125 L -0.140625 -10.3125 L -0.140625 -10.46875 L 3.1875 -10.46875 L 3.1875 -10.3125 L 3.046875 -10.3125 C 2.835938 -10.3125 2.679688 -10.242188 2.578125 -10.109375 C 2.472656 -9.972656 2.421875 -9.847656 2.421875 -9.734375 C 2.421875 -9.617188 2.4375 -9.507812 2.46875 -9.40625 L 4.734375 -2.125 L 7.515625 -10.703125 L 7.65625 -10.6875 L 10.609375 -2.421875 L 12.609375 -9.421875 C 12.640625 -9.523438 12.65625 -9.632812 12.65625 -9.75 C 12.65625 -9.863281 12.601562 -9.984375 12.5 -10.109375 C 12.40625 -10.242188 12.25 -10.3125 12.03125 -10.3125 L 11.90625 -10.3125 L 11.90625 -10.46875 L 14.84375 -10.46875 Z M 14.84375 -10.3125 "/></g></g></g><g fill="#000000" fill-opacity="1"><g transform="translate(196.557443, 262.144589)"><g><path d="M 1.09375 -0.15625 C 1.351562 -0.15625 1.570312 -0.242188 1.75 -0.421875 C 1.9375 -0.609375 2.035156 -0.832031 2.046875 -1.09375 L 2.046875 -9.46875 C 2.015625 -9.707031 1.910156 -9.90625 1.734375 -10.0625 C 1.554688 -10.226562 1.34375 -10.3125 1.09375 -10.3125 L 0.90625 -10.3125 L 0.890625 -10.46875 L 5.28125 -10.46875 C 5.582031 -10.46875 5.914062 -10.492188 6.28125 -10.546875 C 6.644531 -10.609375 6.90625 -10.671875 7.0625 -10.734375 L 7.0625 -8.859375 L 6.90625 -8.859375 L 6.90625 -9.125 C 6.90625 -9.363281 6.820312 -9.566406 6.65625 -9.734375 C 6.5 -9.898438 6.304688 -9.988281 6.078125 -10 L 3.015625 -10 L 3.015625 -5.390625 L 5.546875 -5.390625 C 5.742188 -5.390625 5.910156 -5.457031 6.046875 -5.59375 C 6.191406 -5.738281 6.265625 -5.914062 6.265625 -6.125 L 6.265625 -6.34375 L 6.421875 -6.34375 L 6.421875 -3.984375 L 6.265625 -3.984375 L 6.265625 -4.203125 C 6.265625 -4.398438 6.195312 -4.566406 6.0625 -4.703125 C 5.925781 -4.847656 5.757812 -4.925781 5.5625 -4.9375 L 3.015625 -4.9375 L 3.015625 -0.46875 L 5.15625 -0.46875 C 5.894531 -0.46875 6.457031 -0.628906 6.84375 -0.953125 C 7.238281 -1.285156 7.566406 -1.773438 7.828125 -2.421875 L 7.96875 -2.421875 L 7.109375 0 L 0.890625 0 L 0.890625 -0.15625 Z M 1.09375 -0.15625 "/></g></g></g><g fill="#000000" fill-opacity="1"><g transform="translate(205.179878, 262.144589)"><g><path d="M 4.546875 0 L 0.890625 0 L 0.90625 -0.15625 L 1.09375 -0.15625 C 1.351562 -0.15625 1.570312 -0.242188 1.75 -0.421875 C 1.9375 -0.597656 2.035156 -0.816406 2.046875 -1.078125 L 2.046875 -9.390625 C 2.046875 -9.648438 1.953125 -9.867188 1.765625 -10.046875 C 1.578125 -10.222656 1.351562 -10.3125 1.09375 -10.3125 L 0.90625 -10.3125 L 0.890625 -10.46875 L 3.875 -10.46875 C 4.894531 -10.46875 5.691406 -10.238281 6.265625 -9.78125 C 6.835938 -9.332031 7.125 -8.726562 7.125 -7.96875 C 7.125 -7.375 6.960938 -6.878906 6.640625 -6.484375 C 6.316406 -6.085938 5.925781 -5.828125 5.46875 -5.703125 C 6.257812 -5.578125 6.882812 -5.25 7.34375 -4.71875 C 7.800781 -4.195312 8.03125 -3.535156 8.03125 -2.734375 C 8.03125 -1.929688 7.722656 -1.273438 7.109375 -0.765625 C 6.492188 -0.253906 5.640625 0 4.546875 0 Z M 3.015625 -0.53125 L 4.484375 -0.53125 C 4.492188 -0.53125 4.503906 -0.53125 4.515625 -0.53125 C 5.273438 -0.53125 5.863281 -0.738281 6.28125 -1.15625 C 6.695312 -1.570312 6.90625 -2.160156 6.90625 -2.921875 C 6.90625 -3.347656 6.832031 -3.722656 6.6875 -4.046875 C 6.539062 -4.367188 6.359375 -4.625 6.140625 -4.8125 C 5.566406 -5.289062 4.703125 -5.53125 3.546875 -5.53125 C 3.546875 -5.53125 3.539062 -5.53125 3.53125 -5.53125 L 3.53125 -5.671875 C 3.539062 -5.671875 3.585938 -5.671875 3.671875 -5.671875 C 3.753906 -5.671875 3.875 -5.679688 4.03125 -5.703125 C 4.195312 -5.722656 4.378906 -5.753906 4.578125 -5.796875 C 4.773438 -5.847656 4.953125 -5.925781 5.109375 -6.03125 C 5.273438 -6.144531 5.425781 -6.28125 5.5625 -6.4375 C 5.851562 -6.757812 6 -7.242188 6 -7.890625 C 6 -8.546875 5.8125 -9.054688 5.4375 -9.421875 C 5.0625 -9.796875 4.519531 -9.984375 3.8125 -9.984375 L 3.015625 -9.984375 Z M 3.015625 -0.53125 "/></g></g></g><g fill="#000000" fill-opacity="1"><g transform="translate(213.936795, 262.144589)"><g/></g></g><g fill="#000000" fill-opacity="1"><g transform="translate(217.672685, 262.144589)"><g><path d="M 5.96875 -10.46875 C 7.5625 -10.46875 8.851562 -9.984375 9.84375 -9.015625 C 10.832031 -8.054688 11.328125 -6.796875 11.328125 -5.234375 C 11.328125 -3.671875 10.832031 -2.40625 9.84375 -1.4375 C 8.851562 -0.476562 7.5625 0 5.96875 0 L 0.890625 0 L 0.890625 -0.15625 L 1.09375 -0.15625 C 1.351562 -0.15625 1.570312 -0.242188 1.75 -0.421875 C 1.9375 -0.609375 2.035156 -0.832031 2.046875 -1.09375 L 2.046875 -9.46875 C 2.046875 -9.707031 1.945312 -9.90625 1.75 -10.0625 C 1.5625 -10.226562 1.34375 -10.3125 1.09375 -10.3125 L 0.90625 -10.3125 L 0.890625 -10.46875 Z M 3.015625 -10.015625 L 3.015625 -0.453125 L 5.96875 -0.453125 C 6.800781 -0.453125 7.539062 -0.648438 8.1875 -1.046875 C 8.832031 -1.441406 9.332031 -2 9.6875 -2.71875 C 10.039062 -3.445312 10.21875 -4.285156 10.21875 -5.234375 C 10.21875 -6.671875 9.820312 -7.828125 9.03125 -8.703125 C 8.25 -9.578125 7.226562 -10.015625 5.96875 -10.015625 Z M 3.015625 -10.015625 "/></g></g></g><g fill="#000000" fill-opacity="1"><g transform="translate(229.732137, 262.144589)"><g><path d="M 1.09375 -0.15625 C 1.351562 -0.15625 1.570312 -0.242188 1.75 -0.421875 C 1.9375 -0.609375 2.035156 -0.832031 2.046875 -1.09375 L 2.046875 -9.46875 C 2.015625 -9.707031 1.910156 -9.90625 1.734375 -10.0625 C 1.554688 -10.226562 1.34375 -10.3125 1.09375 -10.3125 L 0.90625 -10.3125 L 0.890625 -10.46875 L 5.28125 -10.46875 C 5.582031 -10.46875 5.914062 -10.492188 6.28125 -10.546875 C 6.644531 -10.609375 6.90625 -10.671875 7.0625 -10.734375 L 7.0625 -8.859375 L 6.90625 -8.859375 L 6.90625 -9.125 C 6.90625 -9.363281 6.820312 -9.566406 6.65625 -9.734375 C 6.5 -9.898438 6.304688 -9.988281 6.078125 -10 L 3.015625 -10 L 3.015625 -5.390625 L 5.546875 -5.390625 C 5.742188 -5.390625 5.910156 -5.457031 6.046875 -5.59375 C 6.191406 -5.738281 6.265625 -5.914062 6.265625 -6.125 L 6.265625 -6.34375 L 6.421875 -6.34375 L 6.421875 -3.984375 L 6.265625 -3.984375 L 6.265625 -4.203125 C 6.265625 -4.398438 6.195312 -4.566406 6.0625 -4.703125 C 5.925781 -4.847656 5.757812 -4.925781 5.5625 -4.9375 L 3.015625 -4.9375 L 3.015625 -0.46875 L 5.15625 -0.46875 C 5.894531 -0.46875 6.457031 -0.628906 6.84375 -0.953125 C 7.238281 -1.285156 7.566406 -1.773438 7.828125 -2.421875 L 7.96875 -2.421875 L 7.109375 0 L 0.890625 0 L 0.890625 -0.15625 Z M 1.09375 -0.15625 "/></g></g></g><g fill="#000000" fill-opacity="1"><g transform="translate(238.354572, 262.144589)"><g><path d="M 11.234375 -10.3125 L 11.09375 -10.3125 C 10.757812 -10.3125 10.453125 -10.175781 10.171875 -9.90625 C 10.003906 -9.769531 9.878906 -9.597656 9.796875 -9.390625 L 6.1875 -1.328125 C 5.820312 -0.523438 5.640625 -0.015625 5.640625 0.203125 L 5.5 0.203125 L 1.296875 -9.375 C 1.160156 -9.695312 0.96875 -9.929688 0.71875 -10.078125 C 0.476562 -10.234375 0.234375 -10.3125 -0.015625 -10.3125 L -0.140625 -10.3125 L -0.140625 -10.46875 L 3.234375 -10.46875 L 3.234375 -10.3125 L 3.09375 -10.3125 C 2.789062 -10.3125 2.59375 -10.175781 2.5 -9.90625 C 2.476562 -9.84375 2.46875 -9.769531 2.46875 -9.6875 C 2.46875 -9.601562 2.492188 -9.503906 2.546875 -9.390625 L 5.671875 -1.5625 L 8.921875 -9.390625 C 8.960938 -9.503906 8.984375 -9.617188 8.984375 -9.734375 C 8.984375 -9.847656 8.929688 -9.972656 8.828125 -10.109375 C 8.722656 -10.242188 8.566406 -10.3125 8.359375 -10.3125 L 8.21875 -10.3125 L 8.21875 -10.46875 L 11.234375 -10.46875 Z M 11.234375 -10.3125 "/></g></g></g><g fill="#000000" fill-opacity="1"><g transform="translate(249.412798, 262.144589)"><g><path d="M 1.09375 -0.15625 C 1.351562 -0.15625 1.570312 -0.242188 1.75 -0.421875 C 1.9375 -0.609375 2.035156 -0.832031 2.046875 -1.09375 L 2.046875 -9.46875 C 2.015625 -9.707031 1.910156 -9.90625 1.734375 -10.0625 C 1.554688 -10.226562 1.34375 -10.3125 1.09375 -10.3125 L 0.90625 -10.3125 L 0.890625 -10.46875 L 5.28125 -10.46875 C 5.582031 -10.46875 5.914062 -10.492188 6.28125 -10.546875 C 6.644531 -10.609375 6.90625 -10.671875 7.0625 -10.734375 L 7.0625 -8.859375 L 6.90625 -8.859375 L 6.90625 -9.125 C 6.90625 -9.363281 6.820312 -9.566406 6.65625 -9.734375 C 6.5 -9.898438 6.304688 -9.988281 6.078125 -10 L 3.015625 -10 L 3.015625 -5.390625 L 5.546875 -5.390625 C 5.742188 -5.390625 5.910156 -5.457031 6.046875 -5.59375 C 6.191406 -5.738281 6.265625 -5.914062 6.265625 -6.125 L 6.265625 -6.34375 L 6.421875 -6.34375 L 6.421875 -3.984375 L 6.265625 -3.984375 L 6.265625 -4.203125 C 6.265625 -4.398438 6.195312 -4.566406 6.0625 -4.703125 C 5.925781 -4.847656 5.757812 -4.925781 5.5625 -4.9375 L 3.015625 -4.9375 L 3.015625 -0.46875 L 5.15625 -0.46875 C 5.894531 -0.46875 6.457031 -0.628906 6.84375 -0.953125 C 7.238281 -1.285156 7.566406 -1.773438 7.828125 -2.421875 L 7.96875 -2.421875 L 7.109375 0 L 0.890625 0 L 0.890625 -0.15625 Z M 1.09375 -0.15625 "/></g></g></g><g fill="#000000" fill-opacity="1"><g transform="translate(258.035233, 262.144589)"><g><path d="M 1.09375 -0.15625 C 1.351562 -0.15625 1.570312 -0.242188 1.75 -0.421875 C 1.9375 -0.609375 2.035156 -0.832031 2.046875 -1.09375 L 2.046875 -9.375 C 2.035156 -9.632812 1.9375 -9.851562 1.75 -10.03125 C 1.570312 -10.21875 1.351562 -10.3125 1.09375 -10.3125 L 0.890625 -10.3125 L 0.890625 -10.46875 L 4.171875 -10.46875 L 4.171875 -10.3125 L 3.984375 -10.3125 C 3.617188 -10.3125 3.34375 -10.160156 3.15625 -9.859375 C 3.0625 -9.703125 3.015625 -9.539062 3.015625 -9.375 L 3.015625 -0.46875 L 5.15625 -0.46875 C 5.894531 -0.46875 6.457031 -0.628906 6.84375 -0.953125 C 7.238281 -1.285156 7.566406 -1.773438 7.828125 -2.421875 L 7.96875 -2.421875 L 7.109375 0 L 0.890625 0 L 0.890625 -0.15625 Z M 1.09375 -0.15625 "/></g></g></g><g fill="#000000" fill-opacity="1"><g transform="translate(266.433509, 262.144589)"><g><path d="M 2.53125 -9.171875 C 3.519531 -10.171875 4.8125 -10.671875 6.40625 -10.671875 C 8.007812 -10.671875 9.304688 -10.171875 10.296875 -9.171875 C 11.296875 -8.171875 11.796875 -6.859375 11.796875 -5.234375 C 11.796875 -3.609375 11.296875 -2.296875 10.296875 -1.296875 C 9.304688 -0.296875 8.007812 0.203125 6.40625 0.203125 C 4.8125 0.203125 3.519531 -0.296875 2.53125 -1.296875 C 1.539062 -2.296875 1.046875 -3.609375 1.046875 -5.234375 C 1.046875 -6.859375 1.539062 -8.171875 2.53125 -9.171875 Z M 3.359375 -1.609375 C 4.128906 -0.691406 5.148438 -0.234375 6.421875 -0.234375 C 7.691406 -0.234375 8.710938 -0.691406 9.484375 -1.609375 C 10.253906 -2.523438 10.640625 -3.734375 10.640625 -5.234375 C 10.640625 -6.222656 10.460938 -7.09375 10.109375 -7.84375 C 9.765625 -8.601562 9.269531 -9.191406 8.625 -9.609375 C 7.988281 -10.023438 7.253906 -10.234375 6.421875 -10.234375 C 5.148438 -10.234375 4.128906 -9.773438 3.359375 -8.859375 C 2.585938 -7.941406 2.203125 -6.734375 2.203125 -5.234375 C 2.203125 -3.734375 2.585938 -2.523438 3.359375 -1.609375 Z M 3.359375 -1.609375 "/></g></g></g><g fill="#000000" fill-opacity="1"><g transform="translate(278.956209, 262.144589)"><g><path d="M 7.875 -7.578125 C 7.875 -7.140625 7.785156 -6.734375 7.609375 -6.359375 C 7.285156 -5.648438 6.707031 -5.15625 5.875 -4.875 C 5.582031 -4.769531 5.332031 -4.71875 5.125 -4.71875 C 4.507812 -4.71875 3.976562 -4.832031 3.53125 -5.0625 L 3.53125 -5.21875 C 4.257812 -5.0625 4.929688 -5.140625 5.546875 -5.453125 C 6.097656 -5.734375 6.472656 -6.191406 6.671875 -6.828125 C 6.734375 -7.023438 6.765625 -7.210938 6.765625 -7.390625 C 6.765625 -7.578125 6.765625 -7.691406 6.765625 -7.734375 C 6.742188 -8.429688 6.554688 -8.984375 6.203125 -9.390625 C 5.859375 -9.804688 5.367188 -10.015625 4.734375 -10.015625 L 3.015625 -10.015625 L 3.015625 -1.09375 C 3.023438 -0.832031 3.125 -0.609375 3.3125 -0.421875 C 3.5 -0.242188 3.722656 -0.15625 3.984375 -0.15625 L 4.171875 -0.15625 L 4.171875 0 L 0.890625 0 L 0.890625 -0.15625 L 1.09375 -0.15625 C 1.351562 -0.15625 1.570312 -0.242188 1.75 -0.421875 C 1.9375 -0.609375 2.035156 -0.832031 2.046875 -1.09375 L 2.046875 -9.453125 C 2.015625 -9.703125 1.910156 -9.90625 1.734375 -10.0625 C 1.554688 -10.226562 1.34375 -10.3125 1.09375 -10.3125 L 0.90625 -10.3125 L 0.890625 -10.46875 L 4.796875 -10.46875 C 5.753906 -10.46875 6.503906 -10.207031 7.046875 -9.6875 C 7.597656 -9.175781 7.875 -8.472656 7.875 -7.578125 Z M 7.875 -7.578125 "/></g></g></g><g fill="#000000" fill-opacity="1"><g transform="translate(287.578644, 262.144589)"><g><path d="M 1.09375 -0.15625 C 1.351562 -0.15625 1.570312 -0.242188 1.75 -0.421875 C 1.9375 -0.609375 2.035156 -0.832031 2.046875 -1.09375 L 2.046875 -9.46875 C 2.015625 -9.707031 1.910156 -9.90625 1.734375 -10.0625 C 1.554688 -10.226562 1.34375 -10.3125 1.09375 -10.3125 L 0.90625 -10.3125 L 0.890625 -10.46875 L 5.28125 -10.46875 C 5.582031 -10.46875 5.914062 -10.492188 6.28125 -10.546875 C 6.644531 -10.609375 6.90625 -10.671875 7.0625 -10.734375 L 7.0625 -8.859375 L 6.90625 -8.859375 L 6.90625 -9.125 C 6.90625 -9.363281 6.820312 -9.566406 6.65625 -9.734375 C 6.5 -9.898438 6.304688 -9.988281 6.078125 -10 L 3.015625 -10 L 3.015625 -5.390625 L 5.546875 -5.390625 C 5.742188 -5.390625 5.910156 -5.457031 6.046875 -5.59375 C 6.191406 -5.738281 6.265625 -5.914062 6.265625 -6.125 L 6.265625 -6.34375 L 6.421875 -6.34375 L 6.421875 -3.984375 L 6.265625 -3.984375 L 6.265625 -4.203125 C 6.265625 -4.398438 6.195312 -4.566406 6.0625 -4.703125 C 5.925781 -4.847656 5.757812 -4.925781 5.5625 -4.9375 L 3.015625 -4.9375 L 3.015625 -0.46875 L 5.15625 -0.46875 C 5.894531 -0.46875 6.457031 -0.628906 6.84375 -0.953125 C 7.238281 -1.285156 7.566406 -1.773438 7.828125 -2.421875 L 7.96875 -2.421875 L 7.109375 0 L 0.890625 0 L 0.890625 -0.15625 Z M 1.09375 -0.15625 "/></g></g></g><g fill="#000000" fill-opacity="1"><g transform="translate(296.201078, 262.144589)"><g><path d="M 3.984375 -10 L 3.015625 -10 L 3.015625 -1.09375 C 3.015625 -0.832031 3.109375 -0.609375 3.296875 -0.421875 C 3.484375 -0.242188 3.710938 -0.15625 3.984375 -0.15625 L 4.15625 -0.15625 L 4.171875 0 L 0.890625 0 L 0.890625 -0.15625 L 1.09375 -0.15625 C 1.351562 -0.15625 1.570312 -0.242188 1.75 -0.421875 C 1.9375 -0.597656 2.035156 -0.816406 2.046875 -1.078125 L 2.046875 -9.375 C 2.035156 -9.632812 1.9375 -9.851562 1.75 -10.03125 C 1.570312 -10.21875 1.351562 -10.3125 1.09375 -10.3125 L 0.890625 -10.3125 L 0.890625 -10.46875 L 4.9375 -10.46875 C 5.84375 -10.46875 6.550781 -10.210938 7.0625 -9.703125 C 7.582031 -9.203125 7.84375 -8.550781 7.84375 -7.75 C 7.84375 -6.945312 7.597656 -6.253906 7.109375 -5.671875 C 6.617188 -5.085938 6.019531 -4.796875 5.3125 -4.796875 C 5.457031 -4.722656 5.628906 -4.582031 5.828125 -4.375 C 6.035156 -4.175781 6.222656 -3.96875 6.390625 -3.75 C 7.242188 -2.519531 7.800781 -1.765625 8.0625 -1.484375 C 8.320312 -1.203125 8.503906 -1.007812 8.609375 -0.90625 C 8.722656 -0.800781 8.84375 -0.695312 8.96875 -0.59375 C 9.101562 -0.5 9.234375 -0.421875 9.359375 -0.359375 C 9.648438 -0.222656 9.957031 -0.15625 10.28125 -0.15625 L 10.28125 0 L 9.46875 0 C 9.039062 0 8.640625 -0.078125 8.265625 -0.234375 C 7.898438 -0.390625 7.625 -0.546875 7.4375 -0.703125 C 7.25 -0.867188 7.085938 -1.03125 6.953125 -1.1875 C 6.828125 -1.34375 6.457031 -1.859375 5.84375 -2.734375 C 5.238281 -3.609375 4.882812 -4.109375 4.78125 -4.234375 C 4.6875 -4.359375 4.582031 -4.484375 4.46875 -4.609375 C 4.15625 -4.941406 3.835938 -5.109375 3.515625 -5.109375 L 3.515625 -5.265625 C 3.597656 -5.253906 3.703125 -5.25 3.828125 -5.25 C 3.953125 -5.25 4.113281 -5.253906 4.3125 -5.265625 C 5.539062 -5.296875 6.316406 -5.8125 6.640625 -6.8125 C 6.703125 -7.019531 6.734375 -7.207031 6.734375 -7.375 C 6.734375 -7.550781 6.734375 -7.664062 6.734375 -7.71875 C 6.710938 -8.382812 6.535156 -8.921875 6.203125 -9.328125 C 5.878906 -9.734375 5.4375 -9.953125 4.875 -9.984375 C 4.632812 -9.992188 4.335938 -10 3.984375 -10 Z M 3.984375 -10 "/></g></g></g></svg>